# xmcd
#
# Track frame offsets: 
#        150
#        2285
#        12093
#        25562
#        41880
#        50721
#        61067
#        76004
#        91014
#        98610
#        107495
#        122669
#        133181
#        147128
#        152411
#        168717
#        183223
#        187351
#        200280
#        214017
#        228924
#        245687
#        260889
#        274260
#        285501
#        296866
#
# Disc length: 4151 seconds
#
# Revision: 0
# Processed by: cddbd v1.5.2PL0 Copyright (c) Steve Scherf et al.
# Submitted via: ExactAudioCopy v1.0b1
#
DISCID=6610351a
DTITLE=Eva Olmerová - Jak dynamit
DYEAR=2015
DGENRE=Blues
TTITLE0=Antisvěty
TTITLE1=Noc jak dynamit
TTITLE2=Železniční most
TTITLE3=Červený klobouk
TTITLE4=Divné zaměstnání
TTITLE5=Jak se jmenuje avenue
TTITLE6=Zapovězená brána
TTITLE7=Napravení Jima Valentina
TTITLE8=Divnej chlap
TTITLE9=Cigaretový dým
TTITLE10=Perot
TTITLE11=Mám prima nápad
TTITLE12=jen pár dní
TTITLE13=vokální variace
TTITLE14=Nezoufej
TTITLE15=Země fantazie
TTITLE16=Jen jednou bylo včera
TTITLE17=Já tančit chci blues
TTITLE18=Druhý břeh
TTITLE19=Podzimní list
TTITLE20=Vrásko
TTITLE21=Už nemám co hrát
TTITLE22=Co nevzal říční proud
TTITLE23=Sebrala patrola prostitutku
TTITLE24=Do nočních lokálů
TTITLE25=To naše mládí
EXTD=
EXTT0=
EXTT1=
EXTT2=
EXTT3=
EXTT4=
EXTT5=
EXTT6=
EXTT7=
EXTT8=
EXTT9=
EXTT10=
EXTT11=
EXTT12=
EXTT13=
EXTT14=
EXTT15=
EXTT16=
EXTT17=
EXTT18=
EXTT19=
EXTT20=
EXTT21=
EXTT22=
EXTT23=
EXTT24=
EXTT25=
PLAYORDER=
